PathFileType	4	(X/Y/Z)	Walk3.trc
DataRate	CameraRate	NumFrames	NumMarkers	Units	OrigDataRate	OrigDataStartFrame	OrigNumFrames
200.000000	200.000000	7	61	mm	200.000000	235	395
Frame#	Times		LFHD		RFHD		CLAV		STRN		LASI		RASI		RACR1		RUA1		RFA1		RWRU		RCAR		LACR1		LUA1		LFA1		LWRU		LCAR		RTH3		RMFC		RTB1		RTB3		RTB4		RMT5		LTH1		LTH3		LTH2		LTH4		LLFC		LTB1		LTB2		LTB4		RTH2		RMT1		RTH4		RMMAL		RLFC		RTH1		RTB2		LBHD		RWRR		LElbow		LWRR		RLMAL		RToe		RCAL		RElbow		LPSI		RBHD		T10		RBack		RPSI		LTB3		LMFC		LLMAL		RElbowM		LElbowM		LCAL		LMT5		LToe		C7		LMT1		LMMAL
			X1	Y1	Z1	X2	Y2	Z2	X3	Y3	Z3	X4	Y4	Z4	X5	Y5	Z5	X6	Y6	Z6	X7	Y7	Z7	X8	Y8	Z8	X9	Y9	Z9	X10	Y10	Z10	X11	Y11	Z11	X12	Y12	Z12	X13	Y13	Z13	X14	Y14	Z14	X15	Y15	Z15	X16	Y16	Z16	X17	Y17	Z17	X18	Y18	Z18	X19	Y19	Z19	X20	Y20	Z20	X21	Y21	Z21	X22	Y22	Z22	X23	Y23	Z23	X24	Y24	Z24	X25	Y25	Z25	X26	Y26	Z26	X27	Y27	Z27	X28	Y28	Z28	X29	Y29	Z29	X30	Y30	Z30	X31	Y31	Z31	X32	Y32	Z32	X33	Y33	Z33	X34	Y34	Z34	X35	Y35	Z35	X36	Y36	Z36	X37	Y37	Z37	X38	Y38	Z38	X39	Y39	Z39	X40	Y40	Z40	X41	Y41	Z41	X42	Y42	Z42	X43	Y43	Z43	X44	Y44	Z44	X45	Y45	Z45	X46	Y46	Z46	X47	Y47	Z47	X48	Y48	Z48	X49	Y49	Z49	X50	Y50	Z50	X51	Y51	Z51	X52	Y52	Z52	X53	Y53	Z53	X54	Y54	Z54	X55	Y55	Z55	X56	Y56	Z56	X57	Y57	Z57	X58	Y58	Z58	X59	Y59	Z59	X60	Y60	Z60	X61	Y61	Z61

235	1.175	163.85	1563.2	-45.101	155.9	1566.3	54.237	119.5	1283.9	6.9713	139.85	1148.2	13.111	84.949	873.4	-104.6	102.92	896.14	142.58	48.655	1324.4	170.79	17.33	1161.7	235.43	-12.175	882	324.25	18.152	756.53	314.71	-15.504	697.41	364.07	51.954	1338.5	-141.96	64.457	1176.6	-222.96	205.86	947.4	-288.39	320.59	911.89	-254.1	361.09	854.29	-287.25	150.55	583.35	187.07	181.18	437.81	27.27	249.81	350.1	117.15	262.11	178.73	98.223	256.54	263.61	109.18	327.12	27.47	121.09	-6.9396	716.42	-160.77	-55.71	554.02	-135.35	21.813	622.93	-130.35	-32.357	634.5	-149.66	-112.49	423.33	-120.4	-149.75	317.06	-60.343	-228.23	275.94	-117.88	-217.61	264.21	-59.464	168.31	687.61	182.34	359.66	43.478	39.063	121.44	660.32	208.38	232.75	84.988	31.667	208	450.58	150.61	92.372	739.6	231.2	211.85	256.6	150.12	25.296	1493.7	-76.17	-44.728	764.84	341.45	85.634	1028.8	-275.99	279.94	858.91	-274.02	222.07	61.935	111.18	408.9	46.611	68.153	173.29	35.208	66.946	-21.897	1005	278.6	-81.874	938.36	-12.46	16.168	1504.4	66.247	-66.92	1180	12.532	-67.673	1265	78.399	-72.371	939.06	87.459	-280.4	208.16	-56.733	-131.04	418.68	10.332	-395.87	168.65	-103.58	-40.185	992.86	203.41	67.299	991.13	-212.23	-448.95	193.03	-64.86	-368.65	50.255	-96.621	-305.7	21.121	-40.829	12.346	1388.8	4.5405	-348.97	41.725	-16.441	-376.66	171.82	-23.153
236	1.18	172.17	1563.6	-44.342	164.33	1566.7	55.007	128.53	1284.2	7.8321	148.93	1148.4	14.175	93.971	872.99	-103.37	111.46	897.15	143.36	57.748	1324.5	171.63	27.013	1161.6	236.14	-1.8019	881.73	324.67	28.73	756.3	314.94	-4.7387	697.15	364.37	60.995	1338.5	-141.28	71.686	1176.2	-221.95	210.91	945.16	-287.48	325.29	908.06	-253.71	364.77	849.97	-287.19	158.88	584.2	187.59	188.94	438.91	27.903	256.33	349.49	116.81	265.39	177.87	97.898	261.49	262.87	108.87	327.64	26.201	121.2	4.0215	714.97	-159.57	-42.07	551.76	-134.43	34.173	621.95	-129.02	-20.065	632.66	-148.52	-97.159	420.65	-119.71	-136.73	315.41	-59.712	-215.97	276.27	-117.63	-205.95	264.32	-59.168	176.68	688.46	183.59	360.26	41.081	38.533	129.65	661.08	209.05	233.74	84.681	31.601	216.28	451.12	150.82	100.46	740.22	232.14	217.21	256.68	150.4	33.785	1493.6	-75.182	-34.088	764.51	341.83	91.702	1028	-274.51	283.79	855.64	-273.45	223.18	61.808	111.22	409.99	43.109	67.386	173.61	35.769	67.233	-11.878	1004.8	279.19	-73.092	938.24	-12.742	24.79	1504.5	67.237	-58.046	1180.3	13.1	-58.671	1265.3	79.287	-63.837	939.54	87.269	-270.19	209.91	-56.712	-115.77	415.87	11.057	-386.35	173.58	-104.28	-30.126	992.66	203.92	73.568	990.85	-210.57	-438.55	200.12	-65.911	-363.27	54.131	-97.171	-302.83	21.065	-41.261	21.379	1389	5.4673	-344.37	44.635	-17.219	-367.57	176.15	-23.749
237	1.185	180.5	1564	-43.565	172.75	1567.2	55.794	137.51	1284.5	8.645	157.94	1148.7	15.198	102.88	872.67	-102.15	119.94	898.27	144.15	66.836	1324.6	172.41	36.684	1161.6	236.8	8.6805	881.55	325.05	39.503	756.2	315.08	6.292	696.98	364.59	70.039	1338.7	-140.62	78.941	1176	-220.94	215.74	942.89	-286.54	329.72	904.1	-253.32	368.1	845.49	-287.14	166.96	585.02	188.22	196.39	439.98	28.592	262.52	348.84	116.59	268.42	177.03	97.645	266.13	262.13	108.64	328.03	25.193	121.4	15.048	713.57	-158.39	-28.238	549.56	-133.51	46.654	621.08	-127.67	-7.6475	630.86	-147.39	-81.517	418.02	-118.95	-123.35	313.92	-58.952	-203.25	276.65	-117.27	-193.86	264.57	-58.734	184.85	689.24	185	360.7	39.056	38.115	137.6	661.81	209.83	234.55	84.454	31.587	224.29	451.61	151.07	108.3	740.82	233.16	222.26	256.72	150.73	42.292	1493.7	-74.213	-23.242	764.27	342.17	97.666	1027.4	-272.99	287.32	852.28	-272.85	224.12	61.715	111.3	410.88	40.052	66.775	173.85	36.26	67.531	-1.8543	1004.6	279.76	-64.402	938.17	-13.065	33.409	1504.6	68.208	-49.245	1180.7	13.613	-49.706	1265.6	80.13	-55.405	940.04	87.023	-259.48	211.78	-56.556	-100.24	413.17	11.895	-376.22	178.54	-104.85	-20.068	992.58	204.4	79.738	990.67	-208.84	-427.58	207.13	-66.808	-357.07	58.25	-97.722	-299.14	21.155	-41.794	30.392	1389.3	6.3361	-338.87	47.783	-18.034	-357.89	180.55	-24.206
238	1.19	188.84	1564.6	-42.771	181.17	1567.8	56.598	146.45	1284.8	9.4027	166.86	1149.1	16.169	111.69	872.46	-100.96	128.35	899.49	144.97	75.91	1324.9	173.14	46.337	1161.8	237.41	19.265	881.47	325.38	50.467	756.22	315.14	17.586	696.91	364.75	79.066	1338.9	-139.99	86.228	1175.8	-219.92	220.38	940.6	-285.57	333.89	900.01	-252.92	371.07	840.87	-287.08	174.75	585.77	188.95	203.52	440.99	29.329	268.36	348.16	116.5	271.18	176.22	97.464	270.47	261.38	108.52	328.31	24.415	121.66	26.128	712.26	-157.23	-14.246	547.46	-132.57	59.233	620.35	-126.33	4.8743	629.14	-146.26	-65.606	415.49	-118.14	-109.62	312.59	-58.066	-190.07	277.09	-116.79	-181.36	264.97	-58.161	192.8	689.95	186.54	361.02	37.379	37.797	145.31	662.49	210.68	235.19	84.296	31.62	231.96	452.01	151.39	115.91	741.39	234.23	226.98	256.71	151.13	50.816	1493.8	-73.268	-12.194	764.1	342.47	103.54	1026.8	-271.42	290.54	848.87	-272.22	224.89	61.647	111.42	411.61	37.424	66.307	174.02	36.678	67.832	8.1663	1004.6	280.31	-55.799	938.16	-13.414	42.024	1504.7	69.156	-40.518	1181.2	14.074	-40.784	1266.1	80.927	-47.065	940.58	86.734	-248.26	213.75	-56.261	-84.501	410.63	12.839	-365.49	183.51	-105.27	-10.024	992.6	204.84	85.818	990.6	-207.05	-416.06	213.98	-67.524	-350	62.562	-98.259	-294.52	21.43	-42.42	39.376	1389.7	7.1452	-332.42	51.125	-18.863	-347.63	185	-24.508
239	1.195	197.19	1565.2	-41.962	189.58	1568.4	57.417	155.34	1285.3	10.099	175.69	1149.4	17.074	120.39	872.35	-99.795	136.71	900.79	145.8	84.965	1325.2	173.8	55.962	1162	237.98	29.946	881.48	325.66	61.617	756.35	315.12	29.138	696.93	364.83	88.058	1339.3	-139.39	93.551	1175.8	-218.9	224.81	938.32	-284.56	337.79	895.83	-252.51	373.7	836.13	-287.02	182.25	586.45	189.75	210.33	441.89	30.106	273.84	347.44	116.54	273.7	175.43	97.353	274.49	260.62	108.49	328.51	23.837	121.96	37.249	711.04	-156.11	-0.12657	545.49	-131.63	71.888	619.79	-124.99	17.477	627.54	-145.16	-49.467	413.1	-117.26	-95.559	311.46	-57.062	-176.48	277.59	-116.2	-168.45	265.52	-57.451	200.54	690.56	188.2	361.23	36.021	37.564	152.77	663.12	211.59	235.7	84.197	31.693	239.24	452.3	151.79	123.32	741.93	235.33	231.34	256.66	151.57	59.351	1494	-72.35	-0.94941	764.01	342.72	109.32	1026.4	-269.81	293.44	845.4	-271.53	225.51	61.596	111.57	412.19	35.201	65.965	174.13	37.024	68.128	18.175	1004.7	280.82	-47.276	938.23	-13.774	50.63	1504.9	70.078	-31.862	1181.8	14.489	-31.908	1266.7	81.675	-38.806	941.15	86.419	-236.53	215.82	-55.824	-68.59	408.3	13.878	-354.18	188.42	-105.53	-0.0046792	992.73	205.25	91.817	990.64	-205.21	-404.02	220.61	-68.032	-342.01	67.006	-98.762	-288.89	21.924	-43.122	48.323	1390.2	7.894	-324.95	54.612	-19.677	-336.78	189.44	-24.65
240	1.2	205.54	1565.9	-41.139	197.99	1569.1	58.249	164.16	1285.8	10.728	184.44	1149.9	17.903	128.98	872.35	-98.673	145.02	902.17	146.65	93.993	1325.6	174.4	65.552	1162.3	238.48	40.714	881.58	325.9	72.945	756.61	315.01	40.942	697.04	364.84	96.995	1339.7	-138.83	100.91	1175.8	-217.88	229.04	936.04	-283.52	341.42	891.55	-252.09	375.98	831.28	-286.95	189.43	587.04	190.62	216.81	442.66	30.919	278.94	346.7	116.74	275.97	174.67	97.312	278.21	259.85	108.57	328.64	23.425	122.29	48.398	709.96	-155.01	14.088	543.68	-130.69	84.599	619.41	-123.68	30.138	626.07	-144.08	-33.143	410.89	-116.33	-81.198	310.54	-55.953	-162.49	278.17	-115.49	-155.16	266.21	-56.613	208.06	691.05	189.93	361.35	34.948	37.405	159.98	663.69	212.54	236.08	84.148	31.803	246.08	452.46	152.28	130.53	742.44	236.43	235.33	256.55	152.04	67.894	1494.3	-71.462	10.484	763.98	342.92	115.03	1026	-268.16	296.05	841.9	-270.8	225.99	61.557	111.74	412.65	33.351	65.735	174.19	37.301	68.415	28.164	1004.9	281.32	-38.826	938.38	-14.128	59.226	1505.2	70.971	-23.275	1182.5	14.861	-23.08	1267.3	82.373	-30.615	941.76	86.094	-224.32	217.96	-55.25	-52.554	406.22	14.998	-342.29	193.24	-105.62	9.9781	992.95	205.64	97.743	990.79	-203.32	-391.51	226.94	-68.316	-333.06	71.518	-99.212	-282.14	22.662	-43.867	57.224	1390.8	8.5836	-316.43	58.19	-20.446	-325.33	193.82	-24.632
241	1.205	213.9	1566.7	-40.305	206.4	1569.8	59.091	172.93	1286.3	11.287	193.1	1150.4	18.646	137.47	872.46	-97.598	153.28	903.59	147.53	102.99	1326.2	174.95	75.1	1162.7	238.94	51.562	881.76	326.09	84.444	756.99	314.84	52.991	697.24	364.77	105.86	1340.2	-138.32	108.29	1175.9	-216.86	233.09	933.78	-282.45	344.79	887.19	-251.64	377.91	826.35	-286.84	196.27	587.55	191.52	222.96	443.27	31.761	283.66	345.93	117.07	278.01	173.94	97.342	281.61	259.09	108.76	328.71	23.148	122.62	59.562	709.03	-153.95	28.367	542.08	-129.75	97.344	619.24	-122.39	42.834	624.76	-143.02	-16.673	408.9	-115.36	-66.551	309.84	-54.756	-148.15	278.84	-114.67	-141.49	267.05	-55.66	215.37	691.42	191.7	361.4	34.125	37.309	166.95	664.21	213.53	236.35	84.14	31.945	252.43	452.48	152.86	137.59	742.93	237.53	238.95	256.38	152.55	76.441	1494.7	-70.607	22.099	764.03	343.08	120.67	1025.7	-266.47	298.35	838.39	-270.02	226.35	61.523	111.93	413	31.841	65.603	174.19	37.513	68.689	38.128	1005.1	281.79	-30.442	938.62	-14.461	67.807	1505.5	71.832	-14.755	1183.2	15.195	-14.304	1268.1	83.022	-22.479	942.42	85.776	-211.61	220.15	-54.545	-36.43	404.42	16.185	-329.84	197.92	-105.54	19.916	993.26	206	103.61	991.04	-201.39	-378.54	232.91	-68.366	-323.13	76.032	-99.588	-274.22	23.654	-44.617	66.072	1391.5	9.2154	-306.85	61.803	-21.14	-313.3	198.09	-24.454
